<svg xmlns="http://www.w3.org/2000/svg" viewBox="0 0 24 24" fill="none" stroke="#4f46e5" stroke-width="2" stroke-linecap="round" stroke-linejoin="round">
  <path d="M12 21.35l-1.45-1.32C5.4 15.36 2 12.28 2 8.5 2 5.42 4.42 3 7.5 3c1.74 0 3.41.81 4.5 2.09C13.09 3.81 14.76 3 16.5 3 19.58 3 22 5.42 22 8.5c0 3.78-3.4 6.86-8.55 11.54L12 21.35z" fill="#e0e7ff" fill-opacity="0.6" stroke="#f43f5e" stroke-width="1.8"/>
  <path d="M9.5 8c.5-.8 1.2-1.2 2.5-1.2s2 .4 2.5 1.2" stroke="#4f46e5" stroke-width="1.5"/>
  <path d="M8.5 10.5c.5-.8 1.2-1.2 2.5-1.2s2 .4 2.5 1.2" stroke="#4f46e5" stroke-width="1.5"/>
  <path d="M7.5 13c.5-.8 1.2-1.2 2.5-1.2s2 .4 2.5 1.2" stroke="#4f46e5" stroke-width="1.5"/>
</svg>
